<svg width="245" height="245" viewBox="0 0 245 245" fill="none" xmlns="http://www.w3.org/2000/svg">
<path d="M100.733 1.66657C24.2001 16.1999 -18.9999 93.5332 8.20011 167.667C11.5334 176.6 18.7334 188.867 26.8668 199.133C71.0001 255.8 157.8 260.467 209.133 209.133C260.467 157.8 255.8 70.9999 199.133 26.8666C176.733 9.26657 155.4 1.39991 127 0.333239C116.2 -0.0667608 107.667 0.333239 100.733 1.66657ZM139.667 5.66657C188.467 12.9999 225.933 47.6666 237.933 96.4666C241.133 109.8 241 136.067 237.8 149C226.333 193.8 193.8 226.333 149 237.8C136.067 241 109.8 241.133 96.4668 237.933C61.5334 229.267 33.5334 207.667 17.8001 177.133C0.0667765 142.467 -0.466558 105.533 16.3334 70.7332C33.5334 35.2666 67.1334 10.9999 107.133 5.13324C119 3.39991 125.8 3.53324 139.667 5.66657Z" fill="white"/>
<path d="M112.333 12.9997C109.4 16.1997 110.067 21.9331 115 37.9331C118.467 49.2664 120.6 51.5331 126.333 49.6664C129.267 48.7331 130.733 44.5997 133.933 26.7331C136.733 11.1331 136.2 10.3331 123.667 10.3331C116.467 10.3331 114.333 10.8664 112.333 12.9997Z" fill="white"/>
<path d="M84.0667 20.0663C79 22.9997 77 24.9997 77 27.133C77 30.4663 99.8 54.333 103 54.333C106.733 54.333 110.333 51.6663 110.333 48.9997C110.333 44.1997 102.2 20.8663 99.5333 18.1997C96.0667 14.733 92.2 15.133 84.0667 20.0663Z" fill="white"/>
<path d="M146.467 18.1997C145 19.6663 141.8 27.2663 139.133 35.2663L134.467 49.6663L137.133 51.933C138.733 53.2663 141 54.333 142.2 54.333C145 54.333 169 30.333 169 27.533C169 24.8663 165.8 22.0663 158.733 18.4663C151.8 14.9997 149.667 14.9997 146.467 18.1997Z" fill="white"/>
<path d="M56.4667 38.1998C52.4667 42.1998 50.2001 45.5332 50.7334 46.7332C51.5334 48.8665 71.1334 62.1998 78.8667 65.7998C83.5334 68.0665 83.6667 68.0665 86.8667 64.9998C90.0667 62.1998 90.0667 61.7998 88.2001 58.0665C84.6001 50.9998 74.0667 34.9998 71.9334 33.2665C67.6667 29.9332 63.1334 31.3998 56.4667 38.1998Z" fill="white"/>
<path d="M172.734 34.7334C171.267 36.3334 166.867 43.1334 162.867 49.6668L155.667 61.5334L158.867 64.7334C161.134 67.0001 162.867 67.6668 164.867 67.0001C169.934 65.4001 195.667 47.8001 195.667 45.9334C195.667 44.8668 192.734 41.2668 189 37.8001C181.534 30.8668 177 29.9334 172.734 34.7334Z" fill="white"/>
<path d="M38.5999 52.7332C33.1332 58.1998 28.7332 65.1332 29.5332 66.9998C30.4666 69.5332 59.1332 83.6665 63.1332 83.6665C65.7999 83.6665 70.3332 79.9332 70.3332 77.6665C70.3332 76.3332 62.1999 66.3332 53.7999 57.2665C46.7332 49.7998 42.7332 48.5998 38.5999 52.7332Z" fill="white"/>
<path d="M194.334 54.5998C187.8 61.2665 175.667 76.4665 175.667 77.9332C175.667 80.0665 180.334 83.6665 183.134 83.6665C187 83.6665 215.534 69.3998 216.467 66.9998C217.267 65.1332 212.867 58.1998 207.4 52.7332C203.8 49.1332 199.134 49.7998 194.334 54.5998Z" fill="white"/>
<path d="M22.4666 77.9333C19 80.8667 15.6666 94.8667 17.8 97C19.5333 98.7333 50.8666 101.4 54.8666 100.2C58.2 99.1333 59.6666 97.2667 59.6666 93.5333C59.6666 91.2667 56.6 89.1333 45.1333 83.2667C29.5333 75 26.7333 74.4667 22.4666 77.9333Z" fill="white"/>
<path d="M200.733 83.2668C187.533 90.0668 186.333 91.1335 186.333 94.6001C186.333 100.467 190.467 101.4 210.067 99.8001C219.267 99.0001 227.4 97.8001 228.2 97.0001C230.333 94.8668 227 80.8668 223.533 77.9335C219.267 74.4668 216.2 75.1335 200.733 83.2668Z" fill="white"/>
<path d="M81.267 80.6001C80.3336 81.0001 78.7336 82.8667 77.667 85.0001L75.8003 88.7334L123.8 128.467C150.2 150.467 172.467 168.467 173.4 168.733C175.934 169.267 179.534 166.067 179.934 162.867C180.2 160.6 170.467 151.8 131.934 119.8C105.4 97.8001 83.5336 79.6667 83.267 79.8001C83.1336 79.8001 82.2003 80.2001 81.267 80.6001Z" fill="white"/>
<path d="M143.4 94.7332C123.8 108.467 122.467 109.667 124.467 111.8C126.467 113.933 127.667 113.267 144.733 100.733C167.533 83.7999 168.333 83.1332 166.067 81.3999C164.733 80.3332 159 83.6666 143.4 94.7332Z" fill="white"/>
<path d="M151.8 102.6C141.4 110.733 133.134 118.067 133.4 118.733C133.667 119.533 134.734 120.733 135.934 121.4C139 123.4 175 92.0666 172.867 89.5333C172.067 88.4666 171.134 87.6666 171 87.6666C170.867 87.6666 162.2 94.3333 151.8 102.6Z" fill="white"/>
<path d="M17.2668 107.133C14.7335 108.866 14.3335 110.466 14.3335 117.533C14.3335 129.666 15.0002 129.933 33.2668 125.666C50.6002 121.533 54.3335 119.666 54.3335 115C54.3335 111.4 51.4002 110.2 35.0002 107.666C29.9335 106.866 24.4668 105.933 22.8668 105.666C21.4002 105.266 18.8668 105.933 17.2668 107.133Z" fill="white"/>
<path d="M208.334 108.6C194.467 110.6 191.667 111.8 191.667 115.8C191.667 119.4 196.067 121.666 210.734 125.666C228.6 130.466 229.4 130.333 230.734 120.333C231.667 112.733 231.534 112.2 228.334 109.266C226.334 107.666 224.2 106.333 223.267 106.466C222.334 106.6 215.667 107.533 208.334 108.6Z" fill="white"/>
<path d="M95.6666 128.467C72.9999 144.867 72.0666 146.2 70.3333 162.6C69.1333 174.6 67.3999 177.533 60.8666 177.267C55.8 177.133 46.6 182.867 44.8666 187.4C44.2 189.133 42.7333 190.467 41.4 190.2C36.2 189.8 35.2666 190.2 37 192.333C40.3333 196.467 43.4 195.933 51.9333 189.933C56.6 186.733 60.9999 184.333 61.9333 184.6C62.7333 184.867 65.5333 184.2 68.1999 183.133C71.7999 181.667 73.7999 179.533 75.6666 175.4C77.1333 172.2 78.3333 168.6 78.3333 167.4C78.3333 166.2 80.7333 162.333 83.6666 159C87.2666 154.733 88.9999 151.533 88.9999 148.867C88.9999 144.467 90.8666 142.333 105.4 130.733C114.2 123.667 114.467 123.267 112.2 120.867C111 119.533 109.8 118.333 109.8 118.333C109.667 118.333 103.4 123 95.6666 128.467ZM83.3999 152.2C84.1999 156.067 81.3999 157.933 78.7333 155.4C76.8666 153.533 76.8666 152.733 78.3333 151C80.4666 148.467 82.8666 149 83.3999 152.2Z" fill="white"/>
<path d="M106.2 138.6C96.0667 146.6 91.5334 151 89.5334 155.267L86.7334 161H90.2001C92.7334 161 98.3334 157 110.067 146.867C119 139.133 126.067 132.333 125.667 131.533C125.133 130.867 123.8 129.8 122.467 129C120.467 127.933 117.4 129.667 106.2 138.6Z" fill="white"/>
<path d="M183.8 152.6C181 156.066 180.2 157.933 181.134 159.133C184.2 162.866 176.867 171.666 172.2 169.8C170.334 169.133 165 174.066 161.8 179.4C160.734 181.266 163.267 191.8 164.867 191.533C165.8 191.533 200.067 150.6 200.734 148.866C201 148.2 198.2 147.666 194.6 147.666C188.467 147.666 187.534 148.066 183.8 152.6Z" fill="white"/>
<path d="M184.334 171.4L165.934 193.533L173.134 199.933C177.134 203.4 180.734 206.333 181.134 206.333C181.8 206.333 208.467 175.133 216.2 165.266C218.734 162.066 218.734 161.933 216.067 159.8C214.467 158.6 211 155.8 208.067 153.4L202.867 149.133L184.334 171.4Z" fill="white"/>
<path d="M55.0001 154.867C50.7334 156.733 47.6667 161.667 47.6667 166.733C47.6667 168.733 45.1334 171.4 39.6667 175.4C31.9334 181 30.4667 183.667 32.8667 187.4C33.6667 188.733 34.2001 188.733 35.6667 187C36.6001 185.933 36.8667 185 36.3334 185C35.8001 185 36.0667 184.2 37.0001 183.133C37.8001 182.067 39.4001 181.533 40.4667 181.933C41.5334 182.333 45.0001 180.467 48.2001 177.8C53.1334 173.8 54.0667 172.333 53.9334 168.467C53.8001 161.933 56.3334 159.4 62.8667 159.933C67.6667 160.2 68.2001 159.933 69.1334 156.6C70.0667 153.133 69.9334 153 64.6001 153C61.5334 153.133 57.1334 153.933 55.0001 154.867Z" fill="white"/>
<path d="M127 173.667C129.534 179.667 129.534 185 126.867 188.733C122.734 194.733 118.6 191.533 117.4 181.133C117 177.4 116.2 174.333 115.667 174.333C115.134 174.333 113.667 176.467 112.334 179.133C110.2 183.8 110.2 185.667 112.467 196.6C113.134 199.933 112.734 201 110.467 202.2C106.467 204.467 101.8 199.533 102.867 194.2C103.667 189.8 102.334 189.267 99.4002 192.6C96.0668 196.333 95.4002 200.467 97.0002 206.6C100.6 219.8 110.6 227 124.467 226.067C131.4 225.667 133.8 224.867 137.933 221.4C144.333 216.333 147.267 211.267 148.333 203.667L149.133 197.667L147 201.267C144.867 205.133 139.4 206.467 137.533 203.533C137 202.733 137.4 198.867 138.333 194.867C139.8 189.133 139.8 187 138.333 183.533C136.2 178.6 131 172.2 127.534 170.333C125.267 169 125.267 169.267 127 173.667Z" fill="white"/>
</svg>
