<svg width="545" height="471" viewBox="0 0 545 471" fill="none" xmlns="http://www.w3.org/2000/svg">
<path d="M250.333 1.13267C247.4 1.53267 238.467 2.99933 230.6 4.466C153 18.866 87.1335 77.666 63.5335 153.666L59.9335 165.266L49.1335 166.066C23.2668 167.933 6.20013 178.466 1.53346 195.533C0.466797 199.133 0.20013 208.199 0.733464 222.333C2.33346 264.999 9.80013 290.066 26.2001 307.933C38.6001 321.533 50.6001 325.666 78.6001 325.666C92.4668 325.666 114.733 323.666 116.067 322.333C116.333 322.066 113.8 317.133 110.6 311.399C80.0668 258.466 77.8001 193.933 104.333 138.466C121.667 102.066 154.867 68.7327 191.4 50.9993C217.8 38.3327 241.267 33.1327 272.333 33.1327C296.733 33.1327 309.133 34.9993 330.067 41.7993C377.4 57.1327 419 93.666 440.333 138.466C466.867 193.933 464.6 258.466 434.067 311.399C430.867 317.133 428.333 322.066 428.6 322.333C429.933 323.666 452.2 325.666 466.067 325.666C494.067 325.666 506.067 321.533 518.467 307.933C534.867 290.066 542.333 264.999 543.933 222.333C544.467 208.199 544.2 199.133 543.133 195.533C538.467 178.466 521.4 167.933 495.533 166.066L484.733 165.266L481.133 153.666C457.533 77.666 392.733 19.7993 314.2 4.33267C300.067 1.53267 263.8 -0.200668 250.333 1.13267Z" fill="white"/>
<path d="M239 62.8667C232.733 64.3334 225.933 66.0667 223.933 66.8667L220.067 68.3334L221 84.3334C221.533 93.1334 221.533 100.333 221 100.333C220.467 100.333 214.733 95.5334 208.2 89.5334L196.467 78.8667L191.267 81.5334C186.467 83.9334 164.333 99.9334 164.333 101C164.333 101.133 167.4 107.8 171 115.667C174.733 123.533 177.667 130.467 177.667 131.133C177.667 131.667 170.733 129.8 162.067 126.733L146.6 121.133L143 125.533C138.333 131.133 127 151 127 153.667C127 154.733 132.467 160.467 139.133 166.2C147.667 173.667 150.733 177 149.533 177.667C148.467 178.2 141.667 179.133 134.333 179.533C127 180.067 120.067 180.733 118.733 181.133C116.2 181.933 113.667 194.467 113.267 209.533L113 219.4L128.6 224.2C137.133 226.867 144.467 229.4 145 229.8C145.4 230.333 138.867 234.467 130.467 239.133L115.133 247.667L115.933 252.333C117.133 259.8 124.067 280.333 128.067 288.333L131.667 295.667L201.933 319.267L272.333 342.733L343 319.267L413.533 295.667L418.2 285.4C423 275.267 429.667 254.067 429.667 249.667C429.667 248.067 425 244.733 414.467 238.867C406.067 234.2 399.533 229.933 400.067 229.4C400.6 229 408.2 226.333 416.867 223.667L432.733 218.733L431.933 207.267C431.533 200.867 430.467 192.333 429.533 188.067L428.067 180.6L415 179.667C407.933 179.133 400.067 178.333 397.667 177.8L393.267 177L404.467 167C410.6 161.667 416.467 156.467 417.4 155.667C418.733 154.467 418.2 152.6 414.867 146.2C409.267 135.533 399.933 121.667 398.333 121.667C397.667 121.667 390.467 123.8 382.6 126.467C374.6 129.133 367.933 131 367.533 130.733C367.267 130.333 370.067 123.533 373.667 115.533L380.467 101L375.4 96.6001C367.933 90.2001 349.933 78.7334 348.467 79.2667C347.667 79.4001 342.067 84.3334 335.8 89.9334C329.667 95.6667 324.067 100.333 323.667 100.333C323.133 100.333 323.133 93.1334 323.667 84.3334L324.6 68.3334L320.867 66.8667C314.867 64.6001 292.333 60.2001 288.6 60.6001C285.667 61.0001 284.333 62.8667 279.267 74.6001C275.933 82.2001 272.867 88.3334 272.333 88.3334C271.933 88.3334 268.733 82.2001 265.533 74.6001C259.667 61.2667 259.4 61.0001 254.867 60.7334C252.467 60.6001 245.267 61.5334 239 62.8667Z" fill="white"/>
<path d="M200.6 398.6L272.333 470.333L343.667 399C382.867 359.8 414.333 327.533 413.4 327.266C412.467 327.133 380.333 337.4 342.067 350.2L272.333 373.4L202.733 350.2C164.333 337.4 132.067 327 131 327C129.933 327 161.267 359.266 200.6 398.6Z" fill="white"/>
</svg>
