<svg width="90" height="90" viewBox="0 0 90 90" fill="none" xmlns="http://www.w3.org/2000/svg">
<g clip-path="url(#clip0_3383_30)">
<path d="M90 0H0V90H90V0Z" fill="#1919B3"/>
<path opacity="0.99" d="M25.1907 16.7686C25.1907 18.6987 23.6168 20.2634 21.6754 20.2634C19.734 20.2634 18.1602 18.6987 18.1602 16.7686C18.1602 14.8386 19.734 13.2739 21.6754 13.2739C23.6168 13.2739 25.1907 14.8386 25.1907 16.7686Z" fill="white"/>
<path opacity="0.99" d="M61.43 12.4806C61.43 14.4107 59.8561 15.9753 57.9147 15.9753C55.9732 15.9753 54.3994 14.4107 54.3994 12.4806C54.3994 10.5505 55.9732 8.98584 57.9147 8.98584C59.8561 8.98584 61.43 10.5505 61.43 12.4806Z" fill="white"/>
<path opacity="0.99" d="M53.1254 46.8125C53.1254 49.2177 51.1641 51.1674 48.7448 51.1674C46.3255 51.1674 44.3643 49.2177 44.3643 46.8125C44.3643 44.4073 46.3255 42.4575 48.7448 42.4575C51.1641 42.4575 53.1254 44.4073 53.1254 46.8125Z" fill="white"/>
<path opacity="0.99" d="M17.5751 50.9547C17.5751 52.5419 16.2809 53.8284 14.6845 53.8284C13.0881 53.8284 11.7939 52.5419 11.7939 50.9547C11.7939 49.3677 13.0881 48.0811 14.6845 48.0811C16.2809 48.0811 17.5751 49.3677 17.5751 50.9547Z" fill="white"/>
<path opacity="0.99" d="M42.3593 74.5265C42.3593 76.1136 41.0651 77.4002 39.4687 77.4002C37.8723 77.4002 36.5781 76.1136 36.5781 74.5265C36.5781 72.9395 37.8723 71.6528 39.4687 71.6528C41.0651 71.6528 42.3593 72.9395 42.3593 74.5265Z" fill="white"/>
<path opacity="0.99" d="M70.6347 66.3625C70.6347 67.9496 69.3405 69.2361 67.7441 69.2361C66.1477 69.2361 64.8535 67.9496 64.8535 66.3625C64.8535 64.7754 66.1477 63.4888 67.7441 63.4888C69.3405 63.4888 70.6347 64.7754 70.6347 66.3625Z" fill="white"/>
<path opacity="0.99" d="M82.8896 39.8356C82.8896 41.4227 81.5954 42.7093 79.999 42.7093C78.4025 42.7093 77.1084 41.4227 77.1084 39.8356C77.1084 38.2485 78.4025 36.9619 79.999 36.9619C81.5954 36.9619 82.8896 38.2485 82.8896 39.8356Z" fill="white"/>
<path opacity="0.99" d="M78.2554 24.8738C78.2554 26.1179 77.2409 27.1264 75.9895 27.1264C74.7381 27.1264 73.7236 26.1179 73.7236 24.8738C73.7236 23.6297 74.7381 22.6211 75.9895 22.6211C77.2409 22.6211 78.2554 23.6297 78.2554 24.8738Z" fill="white"/>
<path opacity="0.99" d="M61.2261 4.79367C61.2261 6.03779 60.2116 7.04633 58.9602 7.04633C57.7088 7.04633 56.6943 6.03779 56.6943 4.79367C56.6943 3.54958 57.7088 2.54102 58.9602 2.54102C60.2116 2.54102 61.2261 3.54958 61.2261 4.79367Z" fill="white"/>
<path opacity="0.99" d="M10.8316 49.301C10.8316 50.5451 9.81711 51.5537 8.56571 51.5537C7.31427 51.5537 6.2998 50.5451 6.2998 49.301C6.2998 48.0569 7.31427 47.0483 8.56571 47.0483C9.81711 47.0483 10.8316 48.0569 10.8316 49.301Z" fill="white"/>
<path opacity="0.99" d="M29.107 67.7248C29.107 68.9689 28.0925 69.9775 26.8411 69.9775C25.5897 69.9775 24.5752 68.9689 24.5752 67.7248C24.5752 66.4807 25.5897 65.4722 26.8411 65.4722C28.0925 65.4722 29.107 66.4807 29.107 67.7248Z" fill="white"/>
<path opacity="0.99" d="M13.1445 23.5114C13.1445 25.0985 11.8503 26.3851 10.2539 26.3851C8.65743 26.3851 7.36328 25.0985 7.36328 23.5114C7.36328 21.9243 8.65743 20.6377 10.2539 20.6377C11.8503 20.6377 13.1445 21.9243 13.1445 23.5114Z" fill="white"/>
<path opacity="0.99" d="M35.0195 3.57926C35.0195 5.16637 33.7253 6.45295 32.1289 6.45295C30.5324 6.45295 29.2383 5.16637 29.2383 3.57926C29.2383 1.99219 30.5324 0.705566 32.1289 0.705566C33.7253 0.705566 35.0195 1.99219 35.0195 3.57926Z" fill="white"/>
<path opacity="0.99" d="M27.8257 32.74C27.8257 33.9841 26.8113 34.9926 25.5598 34.9926C24.3084 34.9926 23.2939 33.9841 23.2939 32.74C23.2939 31.4959 24.3084 30.4873 25.5598 30.4873C26.8113 30.4873 27.8257 31.4959 27.8257 32.74Z" fill="white"/>
<path opacity="0.99" d="M52.6431 62.2243C52.6431 63.4685 51.6286 64.477 50.3772 64.477C49.1258 64.477 48.1113 63.4685 48.1113 62.2243C48.1113 60.9802 49.1258 59.9717 50.3772 59.9717C51.6286 59.9717 52.6431 60.9802 52.6431 62.2243Z" fill="white"/>
<path d="M57.7706 11.7539L48.5293 47.5961" stroke="white" stroke-width="3.95717"/>
<path d="M57.3205 12.7002L21.3242 16.87" stroke="white" stroke-width="3.95717"/>
<path d="M48.4951 47.1823L21.3594 16.6631" stroke="white" stroke-width="3.95717"/>
<path d="M48.4948 47.3892L39.5303 74.9806" stroke="white" stroke-width="2.96788"/>
<path d="M21.2549 16.5446L31.673 4.53809" stroke="white" stroke-width="1.97858"/>
<path d="M10.1104 23.5239L20.9092 16.4561" stroke="white" stroke-width="1.97858"/>
<path d="M14.6094 50.7312L21.2549 16.2197" stroke="white" stroke-width="1.97858"/>
<path d="M39.0109 74.3595L14.4365 51.3813" stroke="white" stroke-width="2.96788"/>
<path d="M67.7389 65.8721L38.9072 74.2411" stroke="white" stroke-width="2.96788"/>
<path d="M79.7149 39.7593L67.7393 65.9608" stroke="white" stroke-width="2.96788"/>
<path d="M48.1143 47.1821L79.2995 39.9663" stroke="white" stroke-width="2.96788"/>
<path d="M57.8398 12.4639L79.2299 39.6709" stroke="white" stroke-width="2.96788"/>
<path d="M14.0107 50.7308L47.2381 47.1821" stroke="white" stroke-width="2.96788"/>
<path d="M38.62 74.123L26.5059 67.6465" stroke="white" stroke-width="1.97858"/>
<path d="M7.84961 49.0747L25.8824 67.4691" stroke="white" stroke-width="1.97858"/>
<path d="M9.75415 23.7607L8.4043 49.0751" stroke="white" stroke-width="1.97858"/>
<path d="M31.6631 3.50293L58.4872 4.41973" stroke="white" stroke-width="1.97858"/>
<path d="M76.2083 25.032L59.2139 4.33105" stroke="white" stroke-width="1.97858"/>
<path d="M80.3272 39.6707L75.8623 24.8252" stroke="white" stroke-width="1.97858"/>
<path d="M57.5176 12.0792L59.1097 4.53809" stroke="white" stroke-width="1.97858"/>
<path d="M14.9451 51.0261L7.91895 49.6953" stroke="white" stroke-width="1.97858"/>
<path d="M26.5059 67.8823L49.6958 62.2339" stroke="white" stroke-width="0.989292"/>
<path d="M50.2842 62.2041L66.9671 65.7824" stroke="white" stroke-width="0.989292"/>
<path d="M9.4043 23.7571L39.767 20.3799" stroke="white" stroke-width="0.989292"/>
<path d="M39.7666 19.7117L57.8365 13.0312" stroke="white" stroke-width="0.989292"/>
<path opacity="0.99" d="M41.649 20.0754C41.649 21.3195 40.6345 22.3281 39.3831 22.3281C38.1317 22.3281 37.1172 21.3195 37.1172 20.0754C37.1172 18.8313 38.1317 17.8228 39.3831 17.8228C40.6345 17.8228 41.649 18.8313 41.649 20.0754Z" fill="white"/>
<path opacity="0.99" d="M69.9005 47.4056C69.9005 48.5698 68.9513 49.5134 67.7803 49.5134C66.6094 49.5134 65.6602 48.5698 65.6602 47.4056C65.6602 46.2416 66.6094 45.2979 67.7803 45.2979C68.9513 45.2979 69.9005 46.2416 69.9005 47.4056Z" fill="white"/>
<path d="M67.5195 47.331L75.6575 24.6123" stroke="white" stroke-width="0.989292"/>
<path d="M67.4062 65.9455L67.6888 46.8242" stroke="white" stroke-width="0.989292"/>
<path d="M14.2061 50.4548L25.8316 32.7207" stroke="white" stroke-width="0.989292"/>
<path d="M31.8994 3.74512L25.4912 32.7205" stroke="white" stroke-width="0.989292"/>
<path fill-rule="evenodd" clip-rule="evenodd" d="M11.9558 58.0794C9.89648 58.2355 7.02867 57.4913 5.7674 59.6558C4.83849 61.2755 5.6911 64.9558 5.30547 67.5819C5.32678 69.3523 4.91427 71.6534 6.37598 72.9491C7.98397 73.9405 10.6476 73.4467 13.107 73.5797C14.7012 73.6059 16.4061 73.455 17.9389 73.6383C17.8638 74.1751 18.3384 75.0466 17.9976 75.4421C12.3873 75.5954 6.7072 75.4165 1.14077 75.7354C-0.685408 76.974 -0.382956 81.5559 2.51189 81.5645C9.29862 81.3384 16.0655 81.6207 22.8153 81.5631C24.7881 80.4919 24.1777 77.7415 24.2373 75.9261C24.0582 73.3472 24.9612 70.4163 23.4381 68.1099C21.9352 67.0274 19.2809 67.5083 17.1177 67.4427C15.3018 67.4495 13.4857 67.495 11.6698 67.4574C11.6316 66.4463 11.5766 65.4315 11.6698 64.4218C15.4473 64.2566 19.0285 64.1982 23.0495 64.0845C25.5683 62.6544 24.5849 58.5734 21.5024 58.0794C18.3206 58.1604 15.1379 58.0531 11.9558 58.0794Z" fill="#1919B3"/>
<path fill-rule="evenodd" clip-rule="evenodd" d="M80.8278 58.0428C75.1513 58.3773 69.379 57.6646 63.7584 58.3947C61.5252 59.6163 62.1088 62.6078 62.1123 64.7223C62.2649 69.7106 61.6785 74.7804 62.4533 79.7168C63.5801 81.9333 66.5463 81.6372 68.649 81.5307C75.5433 81.6405 81.7093 81.7402 88.558 81.7014C90.3222 81.6666 90.6079 76.5884 88.6293 75.5008C86.7505 74.7971 84.6229 75.2606 82.7562 75.2518C78.0127 75.1812 73.0822 75.4297 68.451 75.1415C68.5869 74.6559 67.8639 73.2492 68.8616 73.5064C73.6744 73.2153 78.5312 73.938 83.3134 73.2058C85.3461 71.9383 84.6548 69.2291 84.6626 67.2447C84.5129 64.5365 85.4196 61.4083 83.7607 59.0253C82.9787 58.2847 81.8872 57.9943 80.8278 58.0428ZM78.1002 64.0039C78.6894 64.5072 78.4806 65.3607 78.5255 65.9249C78.8085 67.6747 77.2208 67.2535 75.9739 67.2887C73.4785 67.2594 70.8377 67.3422 68.429 67.2594C68.4371 66.1935 68.3851 65.1284 68.3997 64.0625C71.4952 63.9914 74.603 64.126 77.6823 64.0332C77.8204 64.0067 77.9607 64.0111 78.1002 64.0039Z" fill="#1919B3"/>
<path fill-rule="evenodd" clip-rule="evenodd" d="M59.1388 58.0062C54.9303 58.1811 51.0677 57.7212 47.4873 58.1915C45.2666 59.7382 44.5102 62.8374 43.0738 65.0085C42.8281 65.5397 42.7959 64.2344 42.5019 64.2019C41.2035 62.1449 40.2642 59.4409 37.9413 58.3508C35.1825 57.6223 32.2191 58.0441 29.4872 58.0868C27.4406 58.0072 24.5863 57.5906 23.4455 59.7659C22.7856 61.8242 23.3321 64.1097 23.1416 66.2476C23.2415 70.5876 22.8745 74.9708 23.3648 79.2843C23.693 81.4632 25.9944 81.3854 28.1601 81.4547C32.1759 81.1648 36.3241 81.924 40.2436 80.8461C41.7866 79.8643 42.335 78.069 43.1545 76.5567C44.2078 78.726 45.6942 81.4692 48.507 81.308C51.2426 81.4925 54.4193 81.1377 56.9171 81.4327C56.713 82.0372 57.4588 83.6379 56.3818 83.4417C51.5647 83.5002 46.7471 83.4396 41.93 83.5003C40.9194 84.7069 40.7896 88.743 42.2526 89.9869C46.514 90.0511 50.7443 89.8628 55.106 89.7958C57.4873 89.7572 60.0505 90.0765 62.2989 89.2195C64.2656 87.6722 63.2689 84.8994 63.4746 82.7745C63.3218 75.1949 63.8537 67.5596 63.1641 60.0152C62.5281 58.4427 60.6918 57.9203 59.1388 58.0062ZM50.4427 64.0993C52.5922 64.2244 54.7451 64.0265 56.8951 64.1286C56.9321 67.8457 57.013 71.564 56.9171 75.2809C54.3132 75.0737 51.626 75.6143 49.0716 75.2663C48.0547 73.8986 47.1465 72.3954 46.454 70.8229C47.5112 68.471 48.9448 66.3221 50.2447 64.0846L50.4427 64.0993ZM33.454 64.1653C34.4998 64.216 35.8667 63.8961 36.2409 65.1702C37.4105 67.0774 38.5509 69.0514 39.5837 70.9916C38.8684 72.4503 37.9439 73.8168 37.1861 75.2369C35.885 75.4795 34.9332 75.6356 33.6447 75.5126C32.1954 75.5504 30.742 75.5641 29.2966 75.4349C29.4833 71.6947 29.0434 67.8472 29.4212 64.1726C30.7639 64.2767 32.1101 64.1751 33.454 64.1653Z" fill="#1919B3"/>
<path fill-rule="evenodd" clip-rule="evenodd" d="M21.6775 59.9924C21.4844 59.98 21.2596 59.991 20.9956 59.9997C19.5351 60.0049 18.8246 59.9895 17.2782 59.9997C14.3877 59.999 11.5763 59.9972 8.67015 59.9997C7.81781 60.0006 7.6604 60.22 7.37968 60.6449C7.12046 61.0414 7.22978 61.5152 7.21104 62.0234C7.22617 64.9444 7.16834 67.8387 7.23302 70.7927C7.20979 71.3339 7.30873 71.6241 8.15688 71.7093C11.823 71.7317 15.4898 71.6916 19.1552 71.7459C19.7309 71.7342 19.9217 71.8531 19.8958 72.5965C19.9247 74.2826 19.9225 75.3034 19.9324 76.7099C19.9514 77.1872 19.6441 77.3644 19.1772 77.3624C15.537 77.3176 11.8933 77.3605 8.2522 77.3478H2.16645C1.71862 77.5718 1.78203 77.8878 1.77051 78.4916C1.78179 79.0901 1.73082 79.5665 2.12979 79.6354C2.81677 79.7713 3.54691 79.6573 4.2488 79.6941C9.92741 79.6877 16.0729 79.7089 21.7508 79.6867C22.2302 79.7103 22.4316 79.542 22.4107 78.9462C22.3983 75.9313 22.44 73.0862 22.3961 70.0742C22.3765 69.6069 22.2978 69.4288 21.9121 69.363H11.1704C10.309 69.413 10.2202 69.3598 10.0119 69.1357C9.81129 68.9198 9.79137 68.6392 9.80663 67.2293C9.78469 65.6746 9.7873 66.2603 9.80663 64.707C9.78927 63.5049 9.71036 63.1488 9.9826 62.808C10.2615 62.4588 11.4377 62.5814 12.5635 62.588C15.7184 62.5784 19.8595 62.6481 21.8608 62.588C22.5333 62.5678 22.506 62.1819 22.5207 61.3122C22.5258 60.2667 22.2568 60.0296 21.6775 59.9924Z" fill="white"/>
<path fill-rule="evenodd" clip-rule="evenodd" d="M67.7276 70.3021C67.7513 71.1637 67.5949 71.6459 68.0938 71.6444C72.8907 71.6301 77.4119 71.6804 82.1066 71.6444C82.5881 71.6823 82.8688 71.2769 82.8593 70.7247C82.8443 67.4793 82.89 64.2329 82.8352 60.9882C82.6024 60.4004 82.0416 59.8835 81.37 60.0032C75.871 59.992 70.3714 60.0258 64.8729 59.9861C64.3354 60.1132 64.0098 60.6845 63.9958 61.2193C63.9953 66.8696 63.9794 72.5226 64.0037 78.1725C63.9542 78.7611 64.2926 79.2967 64.8303 79.5321C65.3913 79.8107 66.023 79.7031 66.6824 79.6885C73.6599 79.6885 80.6373 79.6885 87.6147 79.6885C88.0259 79.7162 88.2123 79.6852 88.2202 79.1506C88.2277 78.6262 88.2365 78.1486 88.2202 77.6834C88.2368 77.1168 87.7483 77.147 87.5076 77.1632C81.2147 77.1632 73.514 77.1632 67.2211 77.1632C66.7068 77.1523 66.4775 76.6343 66.5501 76.18C66.5561 71.8177 66.5379 67.4536 66.5592 63.0923C66.5257 62.3739 66.8455 62.1521 67.4241 62.2036C71.3382 62.2152 75.7739 62.1803 79.686 62.221C80.1389 62.2026 80.4449 62.4863 80.4107 62.9756C80.393 64.6493 80.4462 66.9009 80.3839 68.5713C80.4362 69.223 79.9657 69.1944 79.4637 69.1854C75.8663 69.1918 74.2777 69.1986 68.2016 69.195C67.6064 69.1948 67.7483 69.7838 67.7276 70.3021Z" fill="white"/>
<path fill-rule="evenodd" clip-rule="evenodd" d="M42.6124 86.7017C42.5849 87.2176 42.5318 87.9545 43.2514 87.931C49.0567 87.9511 54.8667 87.9339 60.6739 87.9396C61.3205 87.8724 61.7963 87.2736 61.632 86.6296C61.6209 78.3372 61.6542 70.0427 61.6153 61.7516C61.6371 60.9637 61.2334 59.9675 60.304 60.0131C56.482 59.9843 52.6508 59.9862 48.8292 60.0131C47.6671 60.1435 47.3398 61.4827 46.7644 62.3112C45.6219 64.2594 44.5287 66.2448 43.3556 68.1699C42.8835 68.7791 42.542 67.9294 42.3328 67.5519C40.9813 65.2641 39.6106 62.9369 38.1996 60.6865C37.5408 59.7779 36.3615 60.0133 35.2032 60.0131C32.1178 60.0324 29.4244 59.9454 26.3428 60.0131C25.5964 59.9534 25.0102 60.3392 25.0462 61.4252C25.0629 67.1983 24.9875 72.5044 25.0462 78.2761C25.1051 79.719 25.7903 79.6174 26.8414 79.6072C31.0041 79.5875 34.5224 79.5896 38.7466 79.4526C39.3249 79.4339 39.8076 79.0163 40.2118 78.1617C40.7508 77.1716 41.2497 76.3199 41.8308 75.1978C42.3649 74.1666 42.6858 73.155 43.1416 73.1584C43.5975 73.1618 43.9228 74.176 44.6435 75.4401C45.3642 76.7041 46.2078 78.1178 46.9489 79.0807C47.5346 79.6253 48.503 79.4408 49.4253 79.4762C52.0043 79.4561 54.5966 79.5464 57.1672 79.4762C57.865 79.4603 57.6579 78.8076 57.6924 78.3204C57.7932 76.8964 56.8531 77.1873 56.2588 77.1729C53.5219 77.139 49.3447 77.3984 48.3486 77.2025C47.842 77.1029 47.357 76.2864 45.9757 73.8832C45.3623 72.949 45.1872 72.5726 44.5809 71.4696C44.4048 71.1586 44.4026 70.8824 44.4831 70.5274C45.2915 68.8133 44.9644 69.577 45.3832 68.7449C46.6463 66.6025 48.6282 63.0753 48.803 62.7944C49.1808 62.1877 49.6807 62.3014 50.522 62.2767C52.9131 62.272 55.2861 62.2488 57.685 62.2916C58.8438 62.2887 58.8594 62.5856 58.8409 63.9932C58.8265 70.8633 58.8698 77.7357 58.8193 84.6044C58.6174 85.4397 57.5317 85.3607 56.8308 85.3744C52.1988 85.3942 47.564 85.3348 42.9337 85.4042C42.6769 85.8161 42.5401 86.2089 42.6124 86.7017ZM27.4422 69.5022C27.4461 71.7531 27.4295 73.5377 27.4422 75.7868C27.4393 76.3044 27.3761 76.8731 27.9165 77.23C28.365 77.5261 29.4027 77.3715 29.9359 77.4058C32.4254 77.3975 34.4481 77.4224 36.9362 77.3934C37.2108 77.3185 37.8968 77.5422 38.1905 77.1013C38.893 76.2262 39.3653 75.1968 39.9499 74.2436C40.4964 73.3197 41.0014 72.3655 41.5881 71.4696C41.7454 71.1756 41.805 70.8381 41.6608 70.5274C41.3043 69.9467 40.9277 69.428 40.555 68.7926C39.4448 66.885 38.6287 65.4806 37.4745 63.5655C37.278 63.2394 37.0115 62.3297 35.8337 62.3538C34.4328 62.3708 33.509 62.3374 32.1124 62.3538C30.9511 62.3774 29.7814 62.2484 28.6258 62.3538C28.2339 62.473 27.8161 62.7127 27.6378 63.1258C27.4907 63.4668 27.4154 63.6183 27.4422 64.644C27.4726 66.4198 27.4119 67.7264 27.4422 69.5022Z" fill="white"/>
</g>
<defs>
<clipPath id="clip0_3383_30">
<rect width="90" height="90" fill="white"/>
</clipPath>
</defs>
</svg>
